<svg id="Layer_7" data-name="Layer 7" xmlns="http://www.w3.org/2000/svg" viewBox="0 0 396.34 355.84"><defs><style>.cls-1{fill:#61ba48;}</style></defs><title>lawgicgreen</title><path class="cls-1" d="M18.71,355.57V343.24S179,341.18,225.56,213.67c22.61-61.95,14.08-66.32,14.08-66.32s-16.92-20.51-22.32-36.47-7.5-53.4,3-73.43a208.44,208.44,0,0,1,23.6-35.34L245.43,0s28.48,25.9,33,48.19,1.21,53.39-7,67.25a299,299,0,0,1-19.21,28.16c-2.44,3.25-4.55,6.35-4.55,6.35s-2.18,32.49-11.68,56.16c-12.25,30.45-29.36,64.31-69.54,96s-53.09,34.05-96.23,46.58c-31.67,9.21-51.54,6.84-51.54,6.84" transform="translate(-18.71)"/><path class="cls-1" d="M259.94,182.78s13.28-31.25,46.12-46.67,69.4-16.71,84.07-12.8,24.92,7.61,24.92,7.61-10.93,28-37,43.41-38.22,22.78-71.3,19.73-46.81-11.28-46.81-11.28" transform="translate(-18.71)"/><path class="cls-1" d="M225.5,259.08s23.39-25.61,59.81-30.3,71.49,5.05,84,13.16,21,14.69,21,14.69-20.07,23.21-50.09,29.95-44,10.08-74.31-2.73-40.39-24.77-40.39-24.77" transform="translate(-18.71)"/><path class="cls-1" d="M134.41,59.45S168.7,69.88,187.22,99.5s22.15,63.51,18.85,77.43-6.61,23.65-6.61,23.65-30.66-8.5-48.75-31.79-26.75-34.14-25.52-65.1,9.22-44.24,9.22-44.24" transform="translate(-18.71)"/><path class="cls-1" d="M49.83,137.71s36.07-.41,63.82,22.07,42.95,53.48,44.63,67.62,1.92,24.37,1.92,24.37-31.94,1.19-57.14-15.46S65.93,212,56.39,182.37s-6.56-44.66-6.56-44.66" transform="translate(-18.71)"/><path class="cls-1" d="M49.62,253.35c-14.27,0-25.85,10.78-25.85,24.08s11.58,24.08,25.85,24.08,25.85-10.78,25.85-24.08-11.59-24.08-25.85-24.08" transform="translate(-18.71)"/><path class="cls-1" d="M415.05,130s-10.93,28-37,43.41-38.19,22.8-71.27,19.76-46.81-11.29-46.81-11.29Z" transform="translate(-18.71)"/><path class="cls-1" d="M390.28,257s-20,23.22-50.08,30-44,10.08-74.31-2.73-40.39-24.77-40.39-24.77Z" transform="translate(-18.71)"/><path class="cls-1" d="M199.46,200.58s3.31-9.76,6.61-23.62-.35-47.86-18.85-77.46-52.8-40-52.8-40Z" transform="translate(-18.71)"/><path class="cls-1" d="M160,251.77s-.23-10.24-1.91-24.35-16.88-45.18-44.64-67.64-63.83-22.05-63.83-22.05Z" transform="translate(-18.71)"/><path class="cls-1" d="M247.7,150s2.1-3.11,4.54-6.34a297,297,0,0,0,19.22-28.17c8.21-13.83,11.53-44.93,7-67.25s-33-48.2-33-48.2Z" transform="translate(-18.71)"/></svg>