<svg id="Layer_5" data-name="Layer 5" xmlns="http://www.w3.org/2000/svg" viewBox="0 0 316.15 283.85"><defs><style>.cls-1{fill:#063;}</style></defs><title>greenLawgic</title><path class="cls-1" d="M62.88,308.73v-9.84s127.89-1.64,165-103.35c18-49.42,11.23-52.9,11.23-52.9s-13.5-16.36-17.81-29.09-6-42.61,2.37-58.58a167,167,0,0,1,18.82-28.19l1.24-1.68s22.71,20.66,26.34,38.44,1,42.59-5.58,53.64a240.09,240.09,0,0,1-15.32,22.47c-1.95,2.59-3.63,5.06-3.63,5.06s-1.74,25.93-9.32,44.81c-9.77,24.29-23.42,51.3-55.48,76.61S138.39,293.29,104,303.27c-25.25,7.35-41.1,5.46-41.1,5.46" transform="translate(-62.88 -25.1)"/><path class="cls-1" d="M255.3,170.9s10.59-24.94,36.79-37.24,55.36-13.33,67.06-10.21S379,129.52,379,129.52s-8.72,22.33-29.52,34.63S319,182.32,292.65,179.88s-37.35-9-37.35-9" transform="translate(-62.88 -25.1)"/><path class="cls-1" d="M227.83,231.76s18.65-20.43,47.71-24.17,57,4,67,10.5,16.72,11.72,16.72,11.72-16,18.5-40,23.89-35.13,8-59.27-2.19-32.22-19.75-32.22-19.75" transform="translate(-62.88 -25.1)"/><path class="cls-1" d="M155.17,72.52s27.36,8.32,42.12,32,17.67,50.66,15,61.76-5.27,18.87-5.27,18.87-24.46-6.78-38.89-25.37-21.34-27.23-20.36-51.92,7.36-35.29,7.36-35.29" transform="translate(-62.88 -25.1)"/><path class="cls-1" d="M87.71,134.94s28.77-.33,50.91,17.61,34.25,42.65,35.6,53.94,1.53,19.44,1.53,19.44-25.48.94-45.58-12.33-29.62-19.37-37.23-43-5.23-35.62-5.23-35.62" transform="translate(-62.88 -25.1)"/><path class="cls-1" d="M87.53,227.19c-11.38,0-20.62,8.6-20.62,19.21s9.24,19.22,20.62,19.22,20.62-8.6,20.62-19.22-9.24-19.21-20.62-19.21" transform="translate(-62.88 -25.1)"/><path class="cls-1" d="M379,128.8s-8.72,22.33-29.54,34.63S319,181.62,292.64,179.2s-37.34-9-37.34-9Z" transform="translate(-62.88 -25.1)"/><path class="cls-1" d="M359.27,230.13s-16,18.51-39.94,23.89-35.14,8-59.28-2.19-32.22-19.76-32.22-19.76Z" transform="translate(-62.88 -25.1)"/><path class="cls-1" d="M207.07,185.1s2.64-7.8,5.27-18.84-.28-38.18-15-61.79-42.12-31.95-42.12-31.95Z" transform="translate(-62.88 -25.1)"/><path class="cls-1" d="M175.58,225.93s-.19-8.17-1.52-19.43-13.47-36-35.61-53.95S87.53,135,87.53,135Z" transform="translate(-62.88 -25.1)"/><path class="cls-1" d="M245.54,144.71s1.67-2.47,3.62-5.06a236.85,236.85,0,0,0,15.34-22.47c6.55-11,9.19-35.84,5.57-53.64S243.74,25.1,243.74,25.1Z" transform="translate(-62.88 -25.1)"/></svg>